<svg id="visual" viewBox="0 0 960 540" width="960" height="540" xmlns="http://www.w3.org/2000/svg" xmlns:xlink="http://www.w3.org/1999/xlink" version="1.1"><rect width="960" height="540" fill="#232323"></rect><g><g transform="translate(237 161)"><path d="M0 -84.2L65.8 -52.5L82 18.7L36.5 75.8L-36.5 75.8L-82 18.7L-65.8 -52.5Z" stroke="#29a693" fill="none" stroke-width="2"></path></g><g transform="translate(884 212)"><path d="M0 -77L60.2 -48L75.1 17.1L33.4 69.4L-33.4 69.4L-75.1 17.1L-60.2 -48Z" stroke="#29a693" fill="none" stroke-width="2"></path></g><g transform="translate(367 306)"><path d="M0 -83L64.9 -51.7L80.9 18.5L36 74.8L-36 74.8L-80.9 18.5L-64.9 -51.7Z" stroke="#29a693" fill="none" stroke-width="2"></path></g><g transform="translate(599 486)"><path d="M0 -69L53.9 -43L67.3 15.4L29.9 62.2L-29.9 62.2L-67.3 15.4L-53.9 -43Z" stroke="#29a693" fill="none" stroke-width="2"></path></g><g transform="translate(65 194)"><path d="M0 -71L55.5 -44.3L69.2 15.8L30.8 64L-30.8 64L-69.2 15.8L-55.5 -44.3Z" stroke="#29a693" fill="none" stroke-width="2"></path></g><g transform="translate(805 467)"><path d="M0 -82L64.1 -51.1L79.9 18.2L35.6 73.9L-35.6 73.9L-79.9 18.2L-64.1 -51.1Z" stroke="#29a693" fill="none" stroke-width="2"></path></g><g transform="translate(718 46)"><path d="M0 -81L63.3 -50.5L79 18L35.1 73L-35.1 73L-79 18L-63.3 -50.5Z" stroke="#29a693" fill="none" stroke-width="2"></path></g><g transform="translate(557 139)"><path d="M0 -70L54.7 -43.6L68.2 15.6L30.4 63.1L-30.4 63.1L-68.2 15.6L-54.7 -43.6Z" stroke="#29a693" fill="none" stroke-width="2"></path></g><g transform="translate(52 449)"><path d="M0 -67L52.4 -41.8L65.3 14.9L29.1 60.4L-29.1 60.4L-65.3 14.9L-52.4 -41.8Z" stroke="#29a693" fill="none" stroke-width="2"></path></g><g transform="translate(429 478)"><path d="M0 -74L57.9 -46.1L72.1 16.5L32.1 66.7L-32.1 66.7L-72.1 16.5L-57.9 -46.1Z" stroke="#29a693" fill="none" stroke-width="2"></path></g><g transform="translate(58 21)"><path d="M0 -65L50.8 -40.5L63.4 14.5L28.2 58.6L-28.2 58.6L-63.4 14.5L-50.8 -40.5Z" stroke="#29a693" fill="none" stroke-width="2"></path></g><g transform="translate(229 436)"><path d="M0 -68L53.2 -42.4L66.3 15.1L29.5 61.3L-29.5 61.3L-66.3 15.1L-53.2 -42.4Z" stroke="#29a693" fill="none" stroke-width="2"></path></g><g transform="translate(373 34)"><path d="M0 -73L57.1 -45.5L71.2 16.2L31.7 65.8L-31.7 65.8L-71.2 16.2L-57.1 -45.5Z" stroke="#29a693" fill="none" stroke-width="2"></path></g><g transform="translate(929 2)"><path d="M0 -64L50 -39.9L62.4 14.2L27.8 57.7L-27.8 57.7L-62.4 14.2L-50 -39.9Z" stroke="#29a693" fill="none" stroke-width="2"></path></g><g transform="translate(669 324)"><path d="M0 -78L61 -48.6L76 17.4L33.8 70.3L-33.8 70.3L-76 17.4L-61 -48.6Z" stroke="#29a693" fill="none" stroke-width="2"></path></g></g></svg>